REM DIRINDEX 1\2,1\3,1\4,1\5,1\6
REM DIRNAME cjc129,folder01,folder02,folder03,folder04,folder05
TITLE ""
FILE "DISC2Track25.mp3" MP3
  TRACK 01 AUDIO
    TITLE "0:"
    INDEX 01 00:00:00
  TRACK 02 AUDIO
    TITLE "3:cjc129_1700"
    INDEX 01 00:00:07
  TRACK 03 AUDIO
    TITLE "0:"
    INDEX 01 00:01:17
  TRACK 04 AUDIO
    TITLE "5:cjc129_1701"
    INDEX 01 00:02:59
  TRACK 05 AUDIO
    TITLE "0:"
    INDEX 01 00:04:62
  TRACK 06 AUDIO
    TITLE "4:cjc129_1702"
    INDEX 01 00:05:52
  TRACK 07 AUDIO
    TITLE "0:"
    INDEX 01 00:06:63
  TRACK 08 AUDIO
    TITLE "6:cjc129_1703"
    INDEX 01 00:07:17
  TRACK 09 AUDIO
    TITLE "0:"
    INDEX 01 00:11:52
  TRACK 10 AUDIO
    TITLE "3:cjc129_1704"
    INDEX 01 00:13:30
  TRACK 11 AUDIO
    TITLE "0:"
    INDEX 01 00:14:39
  TRACK 12 AUDIO
    TITLE "5:cjc129_1705"
    INDEX 01 00:15:72
  TRACK 13 AUDIO
    TITLE "0:"
    INDEX 01 00:17:74
  TRACK 14 AUDIO
    TITLE "4:cjc129_1706"
    INDEX 01 00:18:64
  TRACK 15 AUDIO
    TITLE "0:"
    INDEX 01 00:20:00
  TRACK 16 AUDIO
    TITLE "6:cjc129_1707"
    INDEX 01 00:20:30
  TRACK 17 AUDIO
    TITLE "0:"
    INDEX 01 00:24:49
  TRACK 18 AUDIO
    TITLE "3:cjc129_1708"
    INDEX 01 00:26:26
  TRACK 19 AUDIO
    TITLE "0:"
    INDEX 01 00:27:34
  TRACK 20 AUDIO
    TITLE "5:cjc129_1709"
    INDEX 01 00:29:05
  TRACK 21 AUDIO
    TITLE "0:"
    INDEX 01 00:31:37
  TRACK 22 AUDIO
    TITLE "4:cjc129_1710"
    INDEX 01 00:32:29
  TRACK 23 AUDIO
    TITLE "0:"
    INDEX 01 00:33:38
  TRACK 24 AUDIO
    TITLE "6:cjc129_1711"
    INDEX 01 00:33:69
  TRACK 25 AUDIO
    TITLE "0:"
    INDEX 01 00:36:33
  TRACK 26 AUDIO
    TITLE "3:cjc129_1712"
    INDEX 01 00:38:08
  TRACK 27 AUDIO
    TITLE "0:"
    INDEX 01 00:39:17
  TRACK 28 AUDIO
    TITLE "5:cjc129_1713"
    INDEX 01 00:40:64
  TRACK 29 AUDIO
    TITLE "0:"
    INDEX 01 00:44:65
  TRACK 30 AUDIO
    TITLE "4:cjc129_1714"
    INDEX 01 00:45:55
  TRACK 31 AUDIO
    TITLE "0:"
    INDEX 01 00:46:64
  TRACK 32 AUDIO
    TITLE "6:cjc129_1715"
    INDEX 01 00:47:23
  TRACK 33 AUDIO
    TITLE "0:"
    INDEX 01 00:52:28
  TRACK 34 AUDIO
    TITLE "3:cjc129_1716"
    INDEX 01 00:54:03
  TRACK 35 AUDIO
    TITLE "0:"
    INDEX 01 00:55:12
  TRACK 36 AUDIO
    TITLE "5:cjc129_1717"
    INDEX 01 00:56:45
  TRACK 37 AUDIO
    TITLE "0:"
    INDEX 01 00:58:13
  TRACK 38 AUDIO
    TITLE "4:cjc129_1718"
    INDEX 01 00:59:04
  TRACK 39 AUDIO
    TITLE "0:"
    INDEX 01 01:00:12
  TRACK 40 AUDIO
    TITLE "6:cjc129_1719"
    INDEX 01 01:00:49
  TRACK 41 AUDIO
    TITLE "0:"
    INDEX 01 01:03:53
  TRACK 42 AUDIO
    TITLE "3:cjc129_1720"
    INDEX 01 01:05:26
  TRACK 43 AUDIO
    TITLE "0:"
    INDEX 01 01:06:36
  TRACK 44 AUDIO
    TITLE "5:cjc129_1721"
    INDEX 01 01:08:09
  TRACK 45 AUDIO
    TITLE "0:"
    INDEX 01 01:12:36
  TRACK 46 AUDIO
    TITLE "4:cjc129_1722"
    INDEX 01 01:13:28
  TRACK 47 AUDIO
    TITLE "0:"
    INDEX 01 01:14:39
  TRACK 48 AUDIO
    TITLE "6:cjc129_1723"
    INDEX 01 01:14:72
  TRACK 49 AUDIO
    TITLE "0:"
    INDEX 01 01:19:19
  TRACK 50 AUDIO
    TITLE "3:cjc129_1724"
    INDEX 01 01:20:69
  TRACK 51 AUDIO
    TITLE "0:"
    INDEX 01 01:22:05
  TRACK 52 AUDIO
    TITLE "5:cjc129_1725"
    INDEX 01 01:23:40
  TRACK 53 AUDIO
    TITLE "0:"
    INDEX 01 01:28:29
  TRACK 54 AUDIO
    TITLE "4:cjc129_1726"
    INDEX 01 01:29:19
  TRACK 55 AUDIO
    TITLE "0:"
    INDEX 01 01:30:28
  TRACK 56 AUDIO
    TITLE "6:cjc129_1727"
    INDEX 01 01:30:62
  TRACK 57 AUDIO
    TITLE "0:"
    INDEX 01 01:34:65
  TRACK 58 AUDIO
    TITLE "3:cjc129_1728"
    INDEX 01 01:36:41
  TRACK 59 AUDIO
    TITLE "0:"
    INDEX 01 01:37:52
  TRACK 60 AUDIO
    TITLE "5:cjc129_1729"
    INDEX 01 01:39:23
  TRACK 61 AUDIO
    TITLE "0:"
    INDEX 01 01:41:50
  TRACK 62 AUDIO
    TITLE "4:cjc129_1730"
    INDEX 01 01:42:43
  TRACK 63 AUDIO
    TITLE "0:"
    INDEX 01 01:43:54
  TRACK 64 AUDIO
    TITLE "6:cjc129_1731"
    INDEX 01 01:44:11
  TRACK 65 AUDIO
    TITLE "0:"
    INDEX 01 01:49:22
  TRACK 66 AUDIO
    TITLE "3:cjc129_1732"
    INDEX 01 01:50:72
  TRACK 67 AUDIO
    TITLE "0:"
    INDEX 01 01:52:00
  TRACK 68 AUDIO
    TITLE "5:cjc129_1733"
    INDEX 01 01:53:47
  TRACK 69 AUDIO
    TITLE "0:"
    INDEX 01 01:59:69
  TRACK 70 AUDIO
    TITLE "4:cjc129_1734"
    INDEX 01 02:00:63
  TRACK 71 AUDIO
    TITLE "0:"
    INDEX 01 02:01:66
  TRACK 72 AUDIO
    TITLE "6:cjc129_1735"
    INDEX 01 02:02:24
  TRACK 73 AUDIO
    TITLE "0:"
    INDEX 01 02:06:16
  TRACK 74 AUDIO
    TITLE "3:cjc129_1736"
    INDEX 01 02:07:65
  TRACK 75 AUDIO
    TITLE "0:"
    INDEX 01 02:08:68
  TRACK 76 AUDIO
    TITLE "5:cjc129_1737"
    INDEX 01 02:10:26
  TRACK 77 AUDIO
    TITLE "0:"
    INDEX 01 02:13:14
  TRACK 78 AUDIO
    TITLE "4:cjc129_1738"
    INDEX 01 02:14:04
  TRACK 79 AUDIO
    TITLE "0:"
    INDEX 01 02:15:07
  TRACK 80 AUDIO
    TITLE "6:cjc129_1739"
    INDEX 01 02:15:41
  TRACK 81 AUDIO
    TITLE "0:"
    INDEX 01 02:19:46
